<?xml version="1.0" encoding="utf-8"?>
<!-- Generator: Adobe Illustrator 26.1.0, SVG Export Plug-In . SVG Version: 6.00 Build 0)  -->
<svg version="1.1" id="Layer_1" xmlns="http://www.w3.org/2000/svg" xmlns:xlink="http://www.w3.org/1999/xlink" x="0px" y="0px"
	 viewBox="0 0 100 100" style="enable-background:new 0 0 100 100;" xml:space="preserve">
<style type="text/css">
	.st0{opacity:0.64;}
	.st1{fill:#8CC63F;}
	.st2{fill:#FFA49F;}
	.st3{fill:#C1272D;}
	.st4{fill:#FFEE94;}
	.st5{opacity:0.18;fill:none;stroke:#000000;stroke-width:3;stroke-miterlimit:10;}
</style>
<g class="st0">
	<path class="st1" d="M64.54,50.86c0,8.26-6.8,14.71-14.94,14.42c-7.87-0.28-14.06-6.8-14.06-14.57s6.19-14.22,14.06-14.42
		C57.73,36.08,64.54,42.6,64.54,50.86z"/>
</g>
<g>
	<g>
		<path d="M50.82,48.84c-0.74-0.58-1.5-1.11-2.33-1.54c-0.36-0.18-0.76-0.26-1.16-0.15c-0.2,0.05-0.37,0.14-0.51,0.27
			c-0.16,0.11-0.29,0.25-0.39,0.42c-0.18,0.35-0.28,0.77-0.15,1.16c0.12,0.36,0.34,0.72,0.69,0.9c0.67,0.35,1.31,0.75,1.91,1.21
			c-0.1-0.08-0.2-0.16-0.3-0.23c0.04,0.03,0.08,0.06,0.12,0.09c0.14,0.15,0.3,0.25,0.48,0.31c0.18,0.09,0.37,0.14,0.58,0.13
			c0.21,0.01,0.4-0.04,0.58-0.13c0.19-0.06,0.35-0.16,0.48-0.31c0.26-0.29,0.46-0.66,0.44-1.06c-0.02-0.13-0.04-0.27-0.05-0.4
			C51.13,49.25,51,49.03,50.82,48.84L50.82,48.84z"/>
	</g>
</g>
<g>
	<g>
		<path d="M51.77,48.41c-0.05-0.07-0.1-0.15-0.13-0.23c0.05,0.12,0.1,0.24,0.15,0.36c-0.04-0.09-0.06-0.19-0.08-0.29
			c0.02,0.13,0.04,0.27,0.05,0.4c-0.01-0.11-0.01-0.22,0-0.32c-0.02,0.13-0.04,0.27-0.05,0.4c0.01-0.1,0.04-0.2,0.08-0.29
			c-0.05,0.12-0.1,0.24-0.15,0.36c0.04-0.09,0.08-0.17,0.14-0.24c-0.08,0.1-0.16,0.2-0.23,0.3c0.02-0.02,0.03-0.04,0.05-0.06
			c0.15-0.14,0.25-0.3,0.31-0.48c0.09-0.18,0.14-0.37,0.13-0.58c0.01-0.21-0.04-0.4-0.13-0.58c-0.06-0.19-0.16-0.35-0.31-0.48
			c-0.1-0.08-0.2-0.16-0.3-0.23c-0.23-0.14-0.49-0.2-0.76-0.2c-0.13,0.02-0.27,0.04-0.4,0.05c-0.25,0.07-0.47,0.2-0.66,0.39
			c-0.1,0.11-0.19,0.24-0.29,0.37c-0.02,0.03-0.04,0.05-0.06,0.08c-0.1,0.16-0.17,0.36-0.24,0.53c-0.1,0.24-0.12,0.52-0.14,0.78
			c0,0.07,0,0.13,0.01,0.2c0.02,0.18,0.04,0.39,0.09,0.58c0.05,0.19,0.14,0.36,0.22,0.54c0.03,0.06,0.07,0.12,0.11,0.18
			c0.09,0.17,0.22,0.32,0.39,0.42c0.14,0.13,0.31,0.22,0.51,0.27c0.2,0.06,0.4,0.07,0.6,0.03c0.2-0.01,0.39-0.07,0.56-0.18
			c0.1-0.08,0.2-0.16,0.3-0.23c0.19-0.19,0.31-0.41,0.39-0.66c0.02-0.13,0.04-0.27,0.05-0.4C51.97,48.9,51.91,48.65,51.77,48.41
			L51.77,48.41z"/>
	</g>
</g>
<g>
	<g>
		<path d="M49.33,50.04c0.07,0.16,0.13,0.35,0.22,0.51c0.09,0.15,0.22,0.31,0.33,0.44c0.15,0.19,0.35,0.32,0.54,0.47
			c0.19,0.14,0.43,0.23,0.65,0.32c0.23,0.09,0.49,0.11,0.73,0.13c0.21,0.01,0.4-0.04,0.58-0.13c0.19-0.06,0.35-0.16,0.48-0.31
			c0.15-0.14,0.25-0.3,0.31-0.48c0.09-0.18,0.14-0.37,0.13-0.58c-0.02-0.13-0.04-0.27-0.05-0.4c-0.07-0.25-0.2-0.47-0.39-0.66
			c-0.1-0.08-0.2-0.16-0.3-0.23c-0.23-0.14-0.49-0.2-0.76-0.2c-0.02,0-0.04,0-0.06-0.01c0.13,0.02,0.27,0.04,0.4,0.05
			c-0.1-0.02-0.2-0.04-0.3-0.08c0.12,0.05,0.24,0.1,0.36,0.15c-0.1-0.04-0.2-0.1-0.28-0.17c0.1,0.08,0.2,0.16,0.3,0.23
			c-0.08-0.06-0.16-0.14-0.22-0.22c0.08,0.1,0.16,0.2,0.23,0.3c-0.06-0.08-0.12-0.17-0.16-0.27c0.05,0.12,0.1,0.24,0.15,0.36
			c0,0,0-0.01-0.01-0.01c-0.05-0.2-0.14-0.37-0.27-0.51c-0.11-0.16-0.25-0.29-0.42-0.39c-0.17-0.11-0.36-0.17-0.56-0.18
			c-0.2-0.04-0.4-0.04-0.6,0.03c-0.12,0.05-0.24,0.1-0.36,0.15c-0.23,0.13-0.4,0.31-0.54,0.54c-0.05,0.12-0.1,0.24-0.15,0.36
			C49.26,49.51,49.26,49.77,49.33,50.04L49.33,50.04z"/>
	</g>
</g>
<g>
	<g>
		<path d="M48.81,50.93c0.11,0.59,0.22,1.18,0.32,1.77c0.05,0.2,0.14,0.37,0.27,0.51c0.11,0.16,0.25,0.29,0.42,0.39
			c0.17,0.11,0.36,0.17,0.56,0.18c0.2,0.04,0.4,0.04,0.6-0.03c0.36-0.12,0.71-0.34,0.9-0.69c0.05-0.12,0.1-0.24,0.15-0.36
			c0.07-0.27,0.07-0.53,0-0.8c-0.11-0.59-0.22-1.18-0.32-1.77c-0.05-0.2-0.14-0.37-0.27-0.51c-0.11-0.16-0.25-0.29-0.42-0.39
			c-0.17-0.11-0.36-0.17-0.56-0.18c-0.2-0.04-0.4-0.04-0.6,0.03c-0.36,0.12-0.71,0.34-0.9,0.69c-0.05,0.12-0.1,0.24-0.15,0.36
			C48.74,50.4,48.74,50.67,48.81,50.93L48.81,50.93z"/>
	</g>
</g>
<g>
	<g>
		<path d="M48.87,48.66c-0.28-0.03-0.55,0.02-0.82,0.06c-0.15,0.02-0.29,0.06-0.43,0.12c-0.25,0.1-0.5,0.2-0.72,0.35
			c-0.22,0.16-0.45,0.32-0.62,0.53c-0.15,0.14-0.25,0.3-0.31,0.48c-0.09,0.18-0.14,0.37-0.13,0.58c-0.01,0.21,0.04,0.4,0.13,0.58
			c0.06,0.19,0.16,0.35,0.31,0.48c0.29,0.26,0.66,0.46,1.06,0.44c0.13-0.02,0.27-0.04,0.4-0.05c0.25-0.07,0.47-0.2,0.66-0.39
			c0.08-0.1,0.17-0.19,0.27-0.26c-0.1,0.08-0.2,0.16-0.3,0.23c0.13-0.1,0.26-0.18,0.41-0.24c-0.12,0.05-0.24,0.1-0.36,0.15
			c0.15-0.06,0.3-0.1,0.46-0.12c-0.13,0.02-0.27,0.04-0.4,0.05c0.13-0.02,0.27-0.02,0.4-0.01c0.21,0.01,0.4-0.04,0.58-0.13
			c0.19-0.06,0.35-0.16,0.48-0.31c0.15-0.14,0.25-0.3,0.31-0.48c0.09-0.18,0.14-0.37,0.13-0.58c-0.02-0.13-0.04-0.27-0.05-0.4
			c-0.07-0.25-0.2-0.47-0.39-0.66c-0.1-0.08-0.2-0.16-0.3-0.23C49.39,48.72,49.14,48.66,48.87,48.66L48.87,48.66z"/>
	</g>
</g>
<g>
	<g>
		<path d="M50.52,49.74c-0.01-0.01-0.03-0.02-0.05-0.03c-0.13-0.06-0.26-0.13-0.4-0.17c-0.14-0.04-0.34-0.05-0.45-0.06
			c-0.02,0-0.04,0-0.05,0c-0.01,0-0.02,0-0.03,0c0,0-0.01,0-0.01,0c-0.12,0.02-0.28,0.03-0.4,0.05c-0.02,0-0.03,0.01-0.05,0.01
			c-0.01,0-0.02,0.01-0.03,0.01c-0.06,0.03-0.12,0.05-0.18,0.08c-0.06,0.02-0.12,0.05-0.18,0.08c0,0-0.01,0-0.01,0
			c-0.02,0.01-0.03,0.02-0.05,0.03c-0.17,0.09-0.32,0.22-0.42,0.39c-0.13,0.14-0.22,0.31-0.27,0.51c-0.06,0.2-0.07,0.4-0.03,0.6
			c0.01,0.2,0.07,0.39,0.18,0.56c0.08,0.1,0.16,0.2,0.23,0.3c0.19,0.19,0.41,0.31,0.66,0.39c0.13,0.02,0.27,0.04,0.4,0.05
			c0.27,0,0.52-0.07,0.76-0.2c0.02-0.01,0.04-0.03,0.06-0.04c-0.12,0.05-0.24,0.1-0.36,0.15c0.03-0.01,0.06-0.02,0.09-0.02
			c-0.13,0.02-0.27,0.04-0.4,0.05c0.03,0,0.06,0,0.1,0c-0.13-0.02-0.27-0.04-0.4-0.05c0.03,0,0.05,0.01,0.08,0.02
			c-0.12-0.05-0.24-0.1-0.36-0.15c0.02,0.01,0.04,0.02,0.05,0.03c0.17,0.11,0.36,0.17,0.56,0.18c0.2,0.04,0.4,0.04,0.6-0.03
			c0.2-0.05,0.37-0.14,0.51-0.27c0.16-0.11,0.29-0.25,0.39-0.42c0.05-0.12,0.1-0.24,0.15-0.36c0.07-0.27,0.07-0.53,0-0.8
			c-0.05-0.12-0.1-0.24-0.15-0.36C50.93,50.06,50.75,49.88,50.52,49.74L50.52,49.74z"/>
	</g>
</g>
<g>
	<path class="st2" d="M67.95,84.18c0.29,0.71,0.3,1.5,0.31,2.26c0.01,1.16,0.02,2.32,0.03,3.48c0.01,0.66,0.01,1.32-0.1,1.96
		c-0.19,1.13-0.73,2.24-0.5,3.36l0.21,0.33c-0.51-3.2-1.38-5.69-2.1-7.39c-1.05-2.48-2.19-4.29-4-7.15
		c-1.04-1.64-1.67-2.63-2.7-3.92c-1.98-2.48-3.04-3.81-5.04-4.76c-2.23-1.06-4.42-1.06-5.53-0.89c-0.77,0.12-1.51,0.37-1.51,0.37
		s-0.94,0.33-1.87,0.86c-3.75,2.15-6.57,5.69-8.47,9.58c-2.3,4.72-3.41,9.08-3.76,12.38l-0.05-0.59c0.05-0.67,0.03-1.4-0.41-1.91
		c-0.2-0.23-0.47-0.39-0.72-0.58c-1.26-0.95-1.81-2.57-2.13-4.11c-0.83-3.99-0.58-8.18,0.62-12.07c0.02-0.27,0.1-0.74,0.42-1.21
		c0.13-0.19,0.27-0.34,0.4-0.46c0.3-0.95,1.1-2.99,3.09-4.72c2.71-2.35,5.79-2.52,6.69-2.53c0.19,0.03,0.38,0.06,0.56,0.09
		c0.67,0.31,1.32,0.66,2,0.97c2.87,1.3,6.1,1.82,9.23,1.5c0.47-0.05,0.94-0.12,1.36-0.33c0.64-0.32,1-0.76,1.13-0.91
		c0.49-0.57,1.46-1.36,3.59-2.28c0.1-0.19,0.2-0.37,0.3-0.56c1.58-0.25,3.09,0.65,4.44,1.51c0.41,0.26,0.82,0.52,1.17,0.86
		c0.77,0.73,1.21,1.74,1.53,2.75c0.72,2.27,0.97,4.69,0.74,7.06"/>
	<g>
		<path d="M67.59,84.28c0.4,1.17,0.3,2.44,0.31,3.66c0.01,1.05,0.07,2.12,0,3.17c-0.09,1.45-1.17,3.3-0.32,4.66
			c0.24,0.38,0.75,0.12,0.69-0.29c-0.71-4.26-2.2-8.2-4.43-11.89c-1.2-1.99-2.42-4.02-3.81-5.88c-1.21-1.63-2.49-3.38-4.1-4.63
			c-7.09-5.54-15.04,1.03-18.65,7.27c-2.51,4.33-4.18,9.34-4.74,14.31c0.25,0,0.5,0,0.75,0c-0.06-0.67,0.05-1.39-0.17-2.03
			c-0.3-0.88-1.06-1.15-1.66-1.8c-1.77-1.92-1.94-5.4-1.97-7.85c-0.03-2.68,0.38-5.45,1.19-8.01c0.14-0.46,0.5-0.74,0.71-1.14
			c0.16-0.3,0.23-0.66,0.37-0.97c0.48-1.11,1.16-2.13,2.01-2.99c1.64-1.69,3.89-2.72,6.22-2.96c0.91-0.09,1.57,0.18,2.4,0.58
			c1.18,0.57,2.38,1.06,3.65,1.4c2.27,0.61,4.87,0.89,7.2,0.45c1.62-0.31,2.54-1.85,3.93-2.64c0.55-0.31,1.24-0.52,1.75-0.88
			c0.07-0.05,0.12-0.22,0.17-0.25c0.44-0.21,0.66-0.31,1.28-0.17c1.37,0.3,3.12,1.31,4.1,2.33c1.09,1.14,1.5,2.89,1.8,4.39
			c0.32,1.66,0.37,3.33,0.23,5.01c-0.04,0.48,0.71,0.48,0.75,0c0.24-2.73-0.04-5.64-1.13-8.18c-0.92-2.13-3.31-3.76-5.54-4.27
			c-0.4-0.09-1.25-0.29-1.63-0.08c-0.25,0.13-0.23,0.26-0.42,0.46c-0.8,0.84-2.21,1.17-3.13,1.95c-0.71,0.61-1.19,1.34-2.18,1.58
			c-1.69,0.42-3.75,0.22-5.44-0.07c-1.52-0.27-3-0.73-4.41-1.38c-0.94-0.43-1.76-1.01-2.82-1.01c-1.81,0.01-3.7,0.65-5.24,1.57
			c-1.9,1.15-3.39,2.9-4.26,4.93c-0.32,0.75-0.83,1.39-1.09,2.15c-0.44,1.28-0.7,2.72-0.91,4.06c-0.48,3.11-0.45,6.4,0.36,9.46
			c0.29,1.11,0.73,2.23,1.53,3.08c0.62,0.66,1.48,1,1.56,2.03c0.03,0.42,0,0.84,0.04,1.27c0.04,0.49,0.7,0.48,0.75,0
			c0.47-4.23,1.84-8.38,3.71-12.19c1.81-3.69,4.44-7.1,8-9.24c3.31-1.99,7.56-1.96,10.63,0.58c3.06,2.53,5.2,6.33,7.25,9.67
			c2.34,3.8,3.92,7.81,4.66,12.22c0.23-0.1,0.46-0.19,0.69-0.29c-0.48-0.77-0.07-1.74,0.13-2.56c0.22-0.91,0.31-1.77,0.3-2.71
			c0-1.92,0.28-4.2-0.36-6.04C68.16,83.63,67.44,83.83,67.59,84.28L67.59,84.28z"/>
	</g>
</g>
<g>
	<g>
		<path class="st3" d="M62.64,43.78c-0.47-0.36-1.1-0.16-1.51,0.19c-0.2,0.16-0.35,0.36-0.53,0.54c-0.19,0.19-0.38,0.29-0.65,0.31
			c-1.05,0.1-1.99,0.67-2.47,1.63c-0.22,0.43,0.43,0.81,0.65,0.38c0.18-0.36,0.44-0.67,0.79-0.89c0.37-0.24,0.76-0.33,1.19-0.38
			c0.51-0.06,0.86-0.34,1.2-0.7c0.22-0.24,0.6-0.7,0.95-0.43c0.16,0.12,0.42,0.02,0.51-0.13C62.89,44.1,62.8,43.9,62.64,43.78
			L62.64,43.78z"/>
	</g>
</g>
<g>
	<g>
		<path class="st3" d="M59.06,44.93c-0.45-0.32-0.93-0.57-1.44-0.77c-0.48-0.19-1.12-0.41-1.49,0.11c-0.11,0.16-0.03,0.42,0.13,0.51
			c0.19,0.1,0.39,0.04,0.51-0.13c-0.01,0.02-0.03,0.04-0.05,0.05c0.04-0.02,0.03-0.02-0.01,0c0.04-0.01,0.04-0.01-0.01,0
			c0.02,0,0.04,0,0.06,0c0.02,0,0.04,0,0.07,0c-0.04-0.01-0.05-0.01,0,0c0.04,0.01,0.08,0.02,0.13,0.03
			c0.18,0.05,0.43,0.14,0.56,0.2c0.41,0.18,0.79,0.4,1.16,0.66c0.16,0.11,0.42,0.03,0.51-0.13C59.3,45.25,59.24,45.05,59.06,44.93
			L59.06,44.93z"/>
	</g>
</g>
<g>
	<g>
		<path class="st3" d="M55.54,38.01c-0.48,0.54-0.94,1.1-1.39,1.67c-0.22,0.29-0.52,0.65-0.2,0.99c0.22,0.25,0.58,0.31,0.84,0.51
			c-0.04-0.04-0.09-0.09-0.13-0.13c-0.07-0.1,0.06-0.21-0.06-0.09c-0.03,0.03-0.06,0.06-0.1,0.1c-0.09,0.09-0.18,0.17-0.27,0.25
			c-0.17,0.15-0.35,0.29-0.54,0.42c-0.17,0.12-0.24,0.33-0.13,0.51c0.1,0.16,0.35,0.25,0.51,0.13c0.23-0.16,0.45-0.33,0.66-0.52
			c0.2-0.17,0.43-0.36,0.57-0.58c0.17-0.28,0.09-0.6-0.18-0.78c-0.11-0.07-0.23-0.12-0.34-0.19c-0.07-0.04-0.13-0.07-0.2-0.11
			c-0.09-0.05-0.06-0.06-0.04,0.01c0,0.07,0,0.13,0,0.2c0.02-0.14,0.22-0.32,0.31-0.43c0.13-0.17,0.27-0.34,0.4-0.5
			c0.26-0.32,0.54-0.64,0.81-0.95C56.39,38.18,55.86,37.64,55.54,38.01L55.54,38.01z"/>
	</g>
</g>
<g>
	<g>
		<path class="st3" d="M54.55,39.35c-0.26-0.07-0.53-0.18-0.8-0.18c-0.26,0-0.48,0.16-0.72,0.24c-0.5,0.16-1.04,0.18-1.56,0.29
			c-0.24,0.05-0.5,0.11-0.72,0.24c-0.25,0.15-0.39,0.39-0.5,0.65c-0.1,0.25-0.16,0.52,0.06,0.73c0.24,0.22,0.56,0.16,0.81,0
			c0.4-0.27,0.02-0.92-0.38-0.65c-0.02,0.02-0.05,0.03-0.08,0.05c-0.08,0.04-0.03,0.05,0.15,0.04c0.03,0.06,0.06,0.11,0.1,0.17
			c0,0.06,0.01,0.06,0.02-0.02c0.01-0.03,0.02-0.05,0.03-0.08c0.03-0.06,0.06-0.13,0.1-0.18c0.08-0.1,0.22-0.14,0.34-0.17
			c0.34-0.09,0.7-0.13,1.05-0.19c0.34-0.05,0.68-0.12,0.99-0.25c0.11-0.05,0.23-0.13,0.35-0.12c0.18,0.01,0.38,0.1,0.55,0.15
			C54.82,40.19,55.02,39.47,54.55,39.35L54.55,39.35z"/>
	</g>
</g>
<g>
	<g>
		<path class="st3" d="M39.5,41.77c0.52-0.16,1.03-0.32,1.55-0.49c-0.15-0.15-0.31-0.31-0.46-0.46c-0.15,0.51-0.43,1.12-0.34,1.66
			c0.08,0.49,0.47,0.87,0.9,1.08c0.44,0.22,0.98,0.26,1.38,0.56c0.11,0.08,0.12,0.18,0.17,0.29c0.05,0.12,0.12,0.22,0.22,0.31
			c0.18,0.16,0.42,0.23,0.65,0.27c-0.03-0.23-0.06-0.46-0.09-0.69c-0.75,0.32-0.88,1.32-0.3,1.87c0.35,0.33,0.88-0.2,0.53-0.53
			c-0.26-0.24-0.16-0.56,0.15-0.69c0.29-0.12,0.22-0.63-0.09-0.69c-0.12-0.02-0.3-0.03-0.38-0.13c-0.06-0.09-0.07-0.23-0.13-0.33
			c-0.06-0.1-0.15-0.18-0.23-0.25c-0.36-0.28-0.8-0.4-1.23-0.54c-0.3-0.1-0.73-0.28-0.8-0.63c-0.04-0.2,0.05-0.42,0.11-0.62
			c0.07-0.25,0.14-0.5,0.22-0.75c0.08-0.27-0.19-0.55-0.46-0.46c-0.52,0.16-1.03,0.32-1.55,0.49C38.85,41.19,39.04,41.91,39.5,41.77
			L39.5,41.77z"/>
	</g>
</g>
<g>
	<g>
		<path class="st3" d="M41.57,43.43c0.78-0.39,1.64-0.63,2.52-0.7c-0.12-0.16-0.24-0.32-0.36-0.47c-0.18,0.52,0.51,0.74,0.86,0.9
			c0.44,0.2,0.89,0.37,1.35,0.52c0.46,0.15,0.66-0.57,0.2-0.72c-0.32-0.1-0.63-0.21-0.93-0.34c-0.15-0.06-0.29-0.13-0.43-0.19
			c-0.13-0.06-0.32-0.12-0.42-0.22c0.03,0.06,0.06,0.11,0.1,0.17c-0.01-0.02-0.01-0.04-0.02-0.05c0,0.07,0,0.13,0,0.2
			c0.01-0.02,0.01-0.03,0.02-0.05c0.07-0.22-0.13-0.49-0.36-0.47c-1.01,0.08-1.99,0.34-2.89,0.8C40.76,43,41.14,43.65,41.57,43.43
			L41.57,43.43z"/>
	</g>
</g>
<g>
	<g>
		<path class="st3" d="M45.86,37.42c0.05,0.24-0.01,0.5-0.02,0.74c-0.01,0.26,0.01,0.53,0.14,0.75c0.14,0.25,0.38,0.4,0.62,0.54
			c0.15,0.08,0.29,0.17,0.44,0.25c0.02,0.01,0.25,0.16,0.24,0.17c0.01-0.01,0.01-0.07,0.01-0.07c0,0-0.05,0.07-0.05,0.07
			c-0.1,0.13-0.18,0.25-0.19,0.42c-0.02,0.29,0.17,0.51,0.42,0.63c0.55,0.28,1.18,0.42,1.79,0.49c0.2,0.02,0.38-0.19,0.38-0.38
			c0-0.22-0.17-0.35-0.38-0.38c-0.26-0.03-0.51-0.08-0.76-0.15c-0.24-0.07-0.46-0.18-0.7-0.25c-0.1-0.04,0-0.03-0.01,0.02
			c-0.03,0.13-0.03,0.16,0.01,0.08c0,0,0,0,0,0c0.08-0.05,0.17-0.23,0.2-0.32c0.09-0.27-0.01-0.53-0.2-0.73
			c-0.18-0.18-0.43-0.3-0.65-0.42c-0.16-0.09-0.42-0.18-0.51-0.36c-0.08-0.16-0.04-0.4-0.02-0.57c0.02-0.25,0.03-0.49-0.02-0.74
			c-0.04-0.2-0.28-0.31-0.46-0.26C45.91,37.02,45.82,37.22,45.86,37.42L45.86,37.42z"/>
	</g>
</g>
<g>
	<g>
		<path class="st3" d="M35.78,52.07c0.59-0.17,1.11,0.17,1.56,0.51c0.47,0.35,0.94,0.71,1.4,1.08c0.45,0.36,0.87,0.75,1.14,1.27
			c0.17,0.34,0.26,1.06,0.81,0.91c0.45-0.12,0.46-0.76,0.49-1.12c0.03-0.28,0.03-0.57,0.12-0.84c0.01-0.04,0.06-0.24,0.12-0.24
			c0.05,0,0.13,0.28,0.15,0.32c0.15,0.4,0.25,1.14,0.81,1.14c0.19,0,0.38-0.11,0.53-0.22c0.16-0.11,0.33-0.34,0.54-0.33
			c0.48,0.02,0.48-0.73,0-0.75c-0.23-0.01-0.42,0.06-0.61,0.18c-0.11,0.07-0.2,0.17-0.31,0.24c-0.05,0.04-0.11,0.08-0.16,0.11
			c0.04-0.01,0.08-0.02,0.12-0.04c-0.12-0.45-0.33-1.19-0.8-1.4c-0.49-0.22-0.88,0.17-1.05,0.6c-0.1,0.27-0.14,0.55-0.17,0.84
			c-0.02,0.15-0.02,0.3-0.04,0.45c-0.01,0.09-0.02,0.19-0.04,0.28c-0.07,0.16-0.02,0.17,0.13,0.04c0.09,0.04,0.18,0.07,0.27,0.11
			c0.05,0.06-0.09-0.26-0.11-0.33c-0.05-0.11-0.09-0.22-0.15-0.32c-0.13-0.26-0.3-0.5-0.49-0.72c-0.4-0.47-0.91-0.82-1.39-1.2
			c-0.87-0.68-1.85-1.64-3.06-1.29C35.12,51.48,35.32,52.21,35.78,52.07L35.78,52.07z"/>
	</g>
</g>
<g>
	<g>
		<path class="st3" d="M39.01,52.8c0.16-0.57,0.26-1.16,0.3-1.75c0.02-0.26,0.06-0.56-0.02-0.81c-0.04-0.14-0.12-0.25-0.21-0.37
			c0,0.01-0.06-0.08-0.05-0.07c-0.06-0.06,0-0.02-0.02,0.02c-0.12,0.09-0.24,0.18-0.36,0.28c0.28-0.02,0.57-0.01,0.85,0.03
			c0.3,0.04,0.59,0.17,0.88,0.2c0.29,0.02,0.53-0.12,0.71-0.35c0.06-0.08,0.1-0.16,0.15-0.24c0.02-0.04,0.04-0.07,0.07-0.11
			c-0.04,0.05,0.08-0.08,0.03-0.04c0.16-0.12,0.24-0.33,0.13-0.51c-0.09-0.16-0.35-0.25-0.51-0.13c-0.18,0.13-0.3,0.29-0.41,0.48
			c-0.02,0.04-0.04,0.07-0.06,0.1c-0.02,0.03-0.02,0.04-0.03,0.04c0,0-0.02,0.01-0.02,0.01c-0.04,0-0.09-0.02-0.13-0.03
			c-0.55-0.15-1.1-0.23-1.67-0.2c-0.17,0.01-0.31,0.11-0.36,0.28c-0.1,0.3,0.07,0.51,0.23,0.74c0.11,0.15,0.06,0.38,0.05,0.56
			c-0.03,0.57-0.13,1.13-0.28,1.68C38.16,53.06,38.88,53.26,39.01,52.8L39.01,52.8z"/>
	</g>
</g>
<g>
	<g>
		<path class="st3" d="M37.68,44.33c0.41,0.39,0.98,0.46,1.5,0.59c0.59,0.14,1.17,0.32,1.74,0.51c0.19,0.07,0.41-0.08,0.46-0.26
			c0.06-0.21-0.07-0.4-0.26-0.46c-0.54-0.18-1.08-0.35-1.63-0.48c-0.25-0.06-0.5-0.11-0.75-0.18c-0.2-0.05-0.39-0.11-0.54-0.25
			C37.87,43.47,37.34,44,37.68,44.33L37.68,44.33z"/>
	</g>
</g>
<g>
	<g>
		<path class="st3" d="M38.21,44.56c-0.22,0.94,0.22,1.97,1.06,2.46c0.17,0.1,0.42,0.05,0.51-0.13c0.09-0.18,0.05-0.41-0.13-0.51
			c-0.04-0.02-0.08-0.05-0.12-0.08c-0.02-0.01-0.04-0.03-0.06-0.04c-0.04-0.03,0.07,0.06,0,0c-0.07-0.06-0.13-0.12-0.19-0.19
			c-0.02-0.02-0.09-0.12-0.04-0.05c-0.03-0.04-0.06-0.08-0.08-0.12c-0.05-0.08-0.09-0.17-0.14-0.25c0.04,0.08-0.01-0.03-0.02-0.06
			c-0.02-0.05-0.03-0.09-0.04-0.14c-0.01-0.05-0.02-0.09-0.03-0.14c0-0.01-0.01-0.07-0.01-0.07c0,0,0.01,0.08,0,0.01
			c-0.01-0.09-0.01-0.19-0.01-0.28c0-0.02,0-0.04,0-0.06c0,0,0.01-0.1,0-0.04c-0.01,0.06,0-0.02,0.01-0.03
			c0.01-0.03,0.01-0.06,0.02-0.08c0.04-0.19-0.06-0.41-0.26-0.46C38.48,44.26,38.26,44.36,38.21,44.56L38.21,44.56z"/>
	</g>
</g>
<g>
	<g>
		<path class="st3" d="M41.38,62.16c-0.1,0.25-0.07,0.58,0.18,0.74c0.24,0.15,0.56,0.04,0.82-0.01c0.54-0.1,1.08-0.23,1.6-0.41
			c0.25-0.08,0.53-0.16,0.75-0.29c0.26-0.16,0.39-0.49,0.22-0.77c-0.14-0.23-0.41-0.3-0.65-0.37c-0.28-0.07-0.56-0.15-0.84-0.22
			c0.09,0.15,0.17,0.31,0.26,0.46c-0.02,0.05-0.03,0.03,0.01,0.01c-0.05,0.02,0.04-0.02,0.06-0.03c0.07-0.04,0.15-0.08,0.22-0.12
			c0.17-0.11,0.33-0.24,0.47-0.39c0.27-0.3,0.47-0.66,0.56-1.05c0.05-0.2-0.06-0.41-0.26-0.46c-0.19-0.05-0.42,0.06-0.46,0.26
			c-0.08,0.34-0.24,0.61-0.5,0.84c-0.11,0.1-0.25,0.18-0.4,0.26c-0.2,0.11-0.35,0.25-0.43,0.47c-0.07,0.19,0.08,0.41,0.26,0.46
			c0.36,0.09,0.72,0.19,1.08,0.29c-0.03-0.01-0.03-0.01,0,0c0.02,0.01,0.02,0.01,0-0.01c-0.01-0.01-0.01-0.02-0.02-0.02
			c0.01-0.09,0.02-0.18,0.03-0.26c0.02-0.01,0.02-0.02,0,0c-0.02,0.01-0.02,0.01,0,0c-0.03,0.01-0.07,0.03-0.1,0.04
			c-0.18,0.07-0.37,0.14-0.56,0.2c-0.36,0.12-0.72,0.21-1.08,0.29c-0.18,0.04-0.37,0.07-0.55,0.11c-0.05,0.01-0.09,0.01-0.14,0.02
			c-0.09,0.01-0.07-0.01,0.06,0.1c0.07,0.02,0.11,0.06,0.11,0.12c0,0.01,0,0.02,0,0.03c0,0,0.03-0.1,0.03-0.1
			c0.08-0.19-0.08-0.41-0.26-0.46C41.62,61.84,41.45,61.97,41.38,62.16L41.38,62.16z"/>
	</g>
</g>
<g>
	<g>
		<path class="st3" d="M47.11,64.92c0.35,0.22,0.72,0.11,1.07-0.05c0.42-0.2,0.83-0.4,1.24-0.61c0.6-0.31,1.23-1,0.75-1.69
			c-0.07,0.18-0.15,0.37-0.22,0.55c0.37-0.05,0.72-0.19,1.03-0.41c0.21-0.15,0.24-0.39,0.08-0.59c-0.54-0.64-1.34-1.01-1.86-1.67
			c-0.18-0.23-0.12-0.4-0.08-0.66c0.03-0.24,0.05-0.48,0.06-0.72c0.01-0.53-0.04-1.05-0.14-1.57c-0.09-0.47-0.81-0.27-0.72,0.2
			c0.11,0.56,0.14,1.14,0.1,1.71c-0.04,0.53-0.2,0.96,0.14,1.42c0.54,0.73,1.4,1.14,1.98,1.83c0.03-0.2,0.05-0.39,0.08-0.59
			c-0.26,0.19-0.53,0.29-0.85,0.33c-0.23,0.03-0.35,0.37-0.22,0.55c0.26,0.37-0.45,0.65-0.69,0.77c-0.23,0.11-0.46,0.23-0.69,0.34
			c-0.15,0.07-0.49,0.32-0.66,0.22C47.07,64.01,46.7,64.66,47.11,64.92L47.11,64.92z"/>
	</g>
</g>
<g>
	<g>
		<path class="st3" d="M49.22,59.51c0.64-0.03,1.27-0.22,1.81-0.55c0.17-0.1,0.25-0.34,0.13-0.51c-0.11-0.17-0.33-0.24-0.51-0.13
			c-0.12,0.07-0.25,0.14-0.38,0.2c-0.01,0.01-0.1,0.05-0.02,0.01c-0.03,0.02-0.07,0.03-0.11,0.04c-0.06,0.02-0.13,0.04-0.19,0.06
			c-0.13,0.04-0.26,0.07-0.39,0.1c-0.04,0.01-0.08,0.01-0.11,0.02c-0.09,0.01,0.07-0.01-0.01,0c-0.08,0.01-0.15,0.01-0.23,0.02
			c-0.2,0.01-0.38,0.17-0.38,0.38C48.86,59.33,49.01,59.52,49.22,59.51L49.22,59.51z"/>
	</g>
</g>
<g>
	<g>
		<path class="st3" d="M56.6,62.99c-0.25,0-0.42-0.32-0.53-0.51c-0.16-0.26-0.31-0.52-0.44-0.79c-0.07-0.14-0.12-0.3-0.19-0.43
			c-0.04-0.08-0.02-0.13-0.07-0.05c0.03-0.04,0.12-0.08,0.16-0.11c0.22-0.17,0.4-0.36,0.56-0.58c0.71-0.96,0.78-2.19,1.16-3.29
			c0.16-0.46-0.57-0.65-0.72-0.2c-0.24,0.71-0.35,1.46-0.59,2.18c-0.1,0.29-0.23,0.57-0.4,0.82c-0.19,0.28-0.43,0.43-0.68,0.64
			c-0.27,0.24-0.23,0.54-0.11,0.84c0.13,0.33,0.28,0.65,0.45,0.96c0.31,0.55,0.7,1.27,1.41,1.27C57.08,63.74,57.08,62.99,56.6,62.99
			L56.6,62.99z"/>
	</g>
</g>
<g>
	<g>
		<path class="st3" d="M56.12,58.88c-0.43-0.05-0.88-0.16-1.28-0.33c-0.29-0.12-0.61-0.32-0.68-0.65c-0.03-0.18-0.03-0.36-0.13-0.53
			c-0.12-0.2-0.34-0.29-0.57-0.27c-0.43,0.03-0.85,0.28-1.16,0.56c-0.15,0.13-0.14,0.39,0,0.53c0.15,0.15,0.38,0.14,0.53,0
			c0.12-0.11,0.26-0.2,0.4-0.26c0.07-0.03,0.15-0.04,0.22-0.07c0.11-0.05,0.04,0.02,0.01-0.04c-0.05-0.01-0.07-0.04-0.08-0.09
			c0,0.01,0.01,0.03,0.01,0.04c0.02,0.33,0.15,0.7,0.41,0.97c0.27,0.29,0.65,0.46,1.01,0.59c0.42,0.15,0.86,0.24,1.31,0.29
			c0.2,0.02,0.38-0.19,0.38-0.38C56.49,59.03,56.32,58.9,56.12,58.88L56.12,58.88z"/>
	</g>
</g>
<g>
	<g>
		<path class="st3" d="M61.92,58.63c0.14-0.98,0.05-1.99-0.31-2.92c-0.16-0.41-0.34-0.97-0.79-1.14c-0.5-0.19-1.09-0.24-1.62-0.28
			c-0.27-0.02-0.49,0.34-0.32,0.56c0.2,0.27,0.52,0.37,0.83,0.2c0.31-0.17,0.19-0.57-0.09-0.69c-0.25-0.1-0.39-0.37-0.38-0.62
			c0.01-0.48-0.74-0.48-0.75,0c-0.01,0.62,0.37,1.13,0.93,1.35c-0.03-0.23-0.06-0.46-0.09-0.69c0.07,0.02,0.13,0.04,0.2,0.07
			c-0.11,0.19-0.22,0.38-0.32,0.56c0.42,0.03,0.86,0.09,1.27,0.2c0.16,0.04,0.2,0.19,0.27,0.33c0.09,0.18,0.17,0.37,0.23,0.56
			c0.25,0.73,0.34,1.52,0.23,2.29c-0.03,0.2,0.05,0.4,0.26,0.46C61.64,58.94,61.9,58.84,61.92,58.63L61.92,58.63z"/>
	</g>
</g>
<g>
	<g>
		<path class="st3" d="M61.29,55.22c-0.15-0.41-0.03-0.82,0.09-1.22c0.14-0.45,0.26-0.9,0.33-1.37c0.04-0.25,0.13-0.56-0.06-0.77
			c-0.17-0.18-0.45-0.18-0.66-0.06c-0.08,0.04-0.14,0.1-0.21,0.16c-0.03,0.03-0.13,0.11-0.13,0.12c-0.02,0.01-0.02,0.01,0,0
			c0.01,0,0.03,0,0.04-0.01c0-0.01-0.03-0.01-0.03-0.02c-0.02-0.08-0.09-0.17-0.12-0.25c-0.07-0.19-0.26-0.32-0.46-0.26
			c-0.19,0.05-0.33,0.27-0.26,0.46c0.13,0.38,0.36,0.79,0.82,0.81c0.2,0.01,0.37-0.07,0.52-0.19c0.06-0.04,0.1-0.1,0.16-0.14
			c0.01-0.01,0.04-0.05,0.02-0.02c0.04-0.06,0.06,0.05-0.07,0c-0.06-0.03-0.11-0.06-0.17-0.1c0.01,0.01,0.02,0.02,0.02,0.02
			c-0.03-0.06-0.06-0.11-0.1-0.17C61.01,52.18,61,52.34,61,52.37c-0.01,0.06-0.02,0.13-0.03,0.19c-0.02,0.13-0.05,0.26-0.07,0.39
			c-0.06,0.28-0.15,0.55-0.23,0.83c-0.16,0.53-0.29,1.1-0.1,1.64c0.07,0.19,0.26,0.32,0.46,0.26
			C61.21,55.63,61.36,55.41,61.29,55.22L61.29,55.22z"/>
	</g>
</g>
<g>
	<g>
		<path class="st3" d="M63.92,48.6c-0.6-0.1-1.2-0.15-1.81-0.15c-0.46,0-1.17-0.06-1.54,0.27c-0.19,0.17-0.22,0.38-0.26,0.62
			c-0.03,0.18-0.14,0.3-0.29,0.4c-0.4,0.27-1.03,0.58-1.52,0.51c-0.2-0.03-0.4,0.05-0.46,0.26c-0.05,0.18,0.06,0.43,0.26,0.46
			c0.6,0.08,1.12-0.11,1.67-0.36c0.4-0.18,0.81-0.42,0.99-0.84c0.06-0.13,0.06-0.47,0.15-0.52c0.08-0.05,0.25-0.04,0.33-0.04
			c0.14-0.01,0.28-0.02,0.42-0.02c0.63-0.02,1.26,0.02,1.87,0.12C64.19,49.4,64.39,48.68,63.92,48.6L63.92,48.6z"/>
	</g>
</g>
<g>
	<g>
		<path class="st3" d="M60.67,48.61c-0.4-0.29-0.87-0.45-1.36-0.51c-0.25-0.03-0.53-0.05-0.75,0.09c-0.11,0.07-0.19,0.17-0.26,0.28
			c-0.02,0.04-0.05,0.08-0.07,0.12c-0.03,0.05,0.01,0,0.01-0.01c0,0.01-0.05,0.05-0.06,0.05c-0.15,0.12-0.14,0.4,0,0.53
			c0.16,0.15,0.37,0.13,0.53,0c0.08-0.06,0.14-0.14,0.19-0.23c0.02-0.03,0.04-0.06,0.06-0.09c0.01-0.01,0.04-0.06,0.01-0.02
			c-0.03,0.04,0-0.01,0.01-0.01c0.04-0.02-0.06,0.04-0.02,0.01c0.02-0.01,0.01-0.01-0.02,0.01c0.01,0,0.02,0,0.03-0.01
			c-0.01,0.02-0.05,0,0,0c0.02,0,0.05,0,0.07,0c0.05,0,0.09,0,0.14,0.01c0.02,0,0.05,0,0.07,0.01c0.07,0.01-0.02-0.01,0.02,0
			c0.19,0.03,0.37,0.08,0.55,0.15c0.03,0.01,0.04,0.02,0.01,0c0.02,0.01,0.04,0.02,0.06,0.03c0.04,0.02,0.08,0.04,0.12,0.06
			c0.09,0.05,0.18,0.11,0.26,0.17c0.16,0.11,0.42,0.03,0.51-0.13C60.91,48.93,60.84,48.73,60.67,48.61L60.67,48.61z"/>
	</g>
</g>
<g>
	<path d="M50.2,36.65L50.2,36.65c7.74,0,13.8,6.12,13.8,13.92c0,7.86-6.34,14.25-14.13,14.25c-0.44,0-0.89-0.02-1.34-0.06
		C41.5,64.09,36,58.01,36,50.9c0-7.12,5.51-13.34,12.55-14.15C49.1,36.68,49.65,36.65,50.2,36.65 M50.2,35.65
		c-0.58,0-1.17,0.03-1.76,0.1C40.69,36.65,35,43.4,35,50.9c0,7.5,5.69,14.12,13.44,14.85c0.48,0.05,0.96,0.07,1.43,0.07
		c8.11,0,15.13-6.51,15.13-15.25C65,41.95,58.17,35.65,50.2,35.65L50.2,35.65z"/>
</g>
<g>
	<path class="st4" d="M34.94,85.7c-1.74-0.48-2.88-2.18-3.46-3.89c-0.82-2.43-0.84-5.06-0.84-7.63c0-0.07,0-0.14,0.04-0.19
		c0.11-0.15,0.35-0.02,0.48,0.12c0.47,0.49,0.94,0.99,1.27,1.58c0.28,0.51,0.44,1.08,0.69,1.61c0.81,1.68,2.46,2.76,4.04,3.75
		L34.94,85.7z"/>
	<g>
		<path d="M35.04,85.34c-1.73-0.52-2.74-2.2-3.26-3.83c-0.63-1.98-0.73-4.08-0.75-6.14c0-0.25,0-0.5,0-0.75c0-0.14,0-0.29,0-0.43
			c-0.17,0.13-0.17,0.24,0.02,0.34c0.08,0.16,0.3,0.32,0.42,0.45c0.2,0.23,0.39,0.47,0.55,0.73c0.46,0.76,0.65,1.65,1.15,2.4
			c0.94,1.42,2.41,2.37,3.82,3.27c-0.04-0.17-0.09-0.34-0.13-0.51c-0.74,1.55-1.48,3.1-2.22,4.65c-0.21,0.43,0.44,0.81,0.65,0.38
			c0.74-1.55,1.48-3.1,2.22-4.65c0.09-0.19,0.05-0.4-0.13-0.51c-1.37-0.87-2.85-1.79-3.69-3.22c-0.44-0.75-0.63-1.62-1.12-2.35
			c-0.23-0.34-0.49-0.65-0.77-0.94c-0.23-0.25-0.47-0.57-0.81-0.64c-0.73-0.15-0.7,0.67-0.69,1.15c0,0.97,0.01,1.94,0.08,2.9
			c0.11,1.73,0.38,3.5,1.09,5.1c0.66,1.51,1.78,2.86,3.4,3.34C35.31,86.2,35.5,85.47,35.04,85.34z"/>
	</g>
</g>
<g>
	<path class="st4" d="M62.39,81.71c1.66-0.81,3.03-2.14,4.09-3.66s1.83-3.21,2.51-4.93c0.23,1.92,0.43,3.86,0.32,5.79
		s-0.53,3.88-1.49,5.56c-0.61,1.07-1.41,2.02-2.21,2.95L62.39,81.71z"/>
	<g>
		<path d="M62.58,82.04c3.5-1.77,5.38-5.31,6.77-8.81c-0.25-0.03-0.49-0.07-0.74-0.1c0.3,2.55,0.57,5.16,0.1,7.7
			c-0.47,2.52-1.73,4.43-3.37,6.34c0.2,0.03,0.39,0.05,0.59,0.08c-1.07-1.91-2.15-3.81-3.22-5.72c-0.24-0.42-0.88-0.04-0.65,0.38
			c1.07,1.91,2.15,3.81,3.22,5.72c0.11,0.2,0.43,0.26,0.59,0.08c1.65-1.94,2.99-3.89,3.51-6.42c0.55-2.69,0.3-5.45-0.03-8.15
			c-0.05-0.42-0.58-0.5-0.74-0.1c-1.32,3.32-3.1,6.68-6.42,8.36C61.77,81.61,62.15,82.25,62.58,82.04z"/>
	</g>
</g>
<g>
	<path class="st4" d="M53.67,69.3c0.01,0.94-0.21,1.88-0.62,2.73l-4.63-0.75c0.03-0.62,0.05-1.23,0.08-1.85L53.67,69.3z"/>
	<g>
		<path d="M53.3,69.3c0,0.88-0.19,1.75-0.57,2.54c0.14-0.06,0.28-0.11,0.42-0.17c-1.35-0.22-2.7-0.44-4.05-0.66
			c-0.19-0.03-0.39-0.06-0.58-0.09c0.09,0.12,0.18,0.24,0.28,0.36c0.03-0.62,0.05-1.23,0.08-1.85c-0.12,0.12-0.25,0.25-0.38,0.38
			c1.5-0.04,3.01-0.07,4.51-0.11c0.22-0.01,0.44-0.01,0.66-0.02c0.48-0.01,0.48-0.76,0-0.75c-1.5,0.04-3.01,0.07-4.51,0.11
			c-0.22,0.01-0.44,0.01-0.66,0.02c-0.21,0.01-0.37,0.17-0.38,0.38c-0.03,0.62-0.05,1.23-0.08,1.85c-0.01,0.15,0.12,0.34,0.28,0.36
			c1.35,0.22,2.7,0.44,4.05,0.66c0.19,0.03,0.39,0.06,0.58,0.09c0.15,0.03,0.35-0.01,0.42-0.17c0.44-0.92,0.67-1.9,0.67-2.92
			C54.05,68.82,53.3,68.81,53.3,69.3z"/>
	</g>
</g>
<g>
	<path class="st4" d="M43.29,67.92c-0.71,0.61-0.95,1.59-1.42,2.4c-0.21,0.36-0.46,0.69-0.62,1.08c-0.14,0.36-0.19,0.76-0.23,1.15
		c-0.08,0.77-0.17,1.54-0.25,2.32c0.49-0.72,0.99-1.45,1.59-2.08c0.66-0.7,1.45-1.28,2.15-1.94c0.7-0.67,1.34-1.45,1.59-2.38
		L43.29,67.92z"/>
	<g>
		<path d="M43.02,67.66c-0.44,0.4-0.72,0.91-0.97,1.43c-0.26,0.56-0.55,1.09-0.86,1.62c-0.34,0.56-0.46,1.14-0.53,1.78
			c-0.09,0.79-0.17,1.58-0.26,2.37c-0.04,0.4,0.51,0.46,0.7,0.19c0.42-0.61,0.83-1.22,1.32-1.77c0.5-0.57,1.08-1.05,1.65-1.54
			c1.02-0.88,2.01-1.85,2.39-3.18c0.05-0.18-0.06-0.42-0.26-0.46c-0.94-0.18-1.87-0.36-2.81-0.53c-0.47-0.09-0.67,0.63-0.2,0.72
			c0.94,0.18,1.87,0.36,2.81,0.53c-0.09-0.15-0.17-0.31-0.26-0.46c-0.38,1.32-1.48,2.23-2.48,3.09c-0.54,0.46-1.07,0.94-1.53,1.49
			c-0.46,0.55-0.87,1.14-1.27,1.74c0.23,0.06,0.47,0.13,0.7,0.19c0.08-0.73,0.16-1.45,0.24-2.18c0.07-0.62,0.17-1.15,0.51-1.69
			c0.29-0.46,0.53-0.93,0.76-1.42c0.23-0.51,0.48-1,0.9-1.38C43.91,67.86,43.38,67.33,43.02,67.66z"/>
	</g>
</g>
<g>
	<path class="st4" d="M56.74,66.67c0.4,0.88,0.8,1.75,1.2,2.63c0.11,0.24,0.23,0.49,0.41,0.68c0.18,0.17,0.4,0.28,0.63,0.38
		c2.01,0.89,4.34,1.31,6.39,0.51c-2.62-1.08-4.96-2.84-6.72-5.05L56.74,66.67z"/>
	<g>
		<path d="M56.42,66.86c0.43,0.95,0.83,1.94,1.31,2.87c0.43,0.83,1.37,1.12,2.21,1.4c1.78,0.6,3.75,0.77,5.54,0.1
			c0.36-0.14,0.34-0.58,0-0.72c-2.57-1.07-4.82-2.79-6.55-4.96c-0.11-0.14-0.31-0.12-0.45-0.06c-0.64,0.28-1.27,0.57-1.91,0.85
			c-0.44,0.2-0.06,0.84,0.38,0.65c0.64-0.28,1.27-0.57,1.91-0.85c-0.15-0.02-0.3-0.04-0.45-0.06c1.83,2.27,4.2,4.03,6.89,5.15
			c0-0.24,0-0.48,0-0.72c-1.62,0.61-3.37,0.47-4.99-0.06c-0.4-0.13-0.79-0.27-1.17-0.45c-0.44-0.2-0.65-0.47-0.84-0.9
			c-0.4-0.87-0.8-1.75-1.2-2.63C56.87,66.05,56.22,66.43,56.42,66.86z"/>
	</g>
</g>
<g>
	<g>
		<path d="M47.25,76.03c0.13-0.34,0.53-0.47,0.85-0.53c0.45-0.09,0.94-0.07,1.39-0.02c1.02,0.11,1.98,0.5,2.82,1.08
			c0.4,0.28,0.77-0.37,0.38-0.65c-1.03-0.71-2.24-1.13-3.49-1.2c-0.99-0.06-2.28,0.06-2.68,1.13
			C46.35,76.28,47.08,76.47,47.25,76.03L47.25,76.03z"/>
	</g>
</g>
<path class="st5" d="M62.98,50.69c0,7.46-6.03,13.41-13.27,13.29c-7.02-0.12-12.55-5.93-12.55-12.99s5.54-13,12.55-13.28
	C56.95,37.42,62.98,43.23,62.98,50.69z"/>
</svg>
