<?xml version="1.0" encoding="utf-8"?>
<!-- Generator: Adobe Illustrator 26.1.0, SVG Export Plug-In . SVG Version: 6.00 Build 0)  -->
<svg version="1.1" id="Layer_1" xmlns="http://www.w3.org/2000/svg" xmlns:xlink="http://www.w3.org/1999/xlink" x="0px" y="0px"
	 viewBox="0 0 50 50" style="enable-background:new 0 0 50 50;" xml:space="preserve">
<style type="text/css">
	.st0{fill:#117D9A;}
</style>
<g>
	<path class="st0" d="M11.92,24.94c-3.42-3.42-4.55-7.38-3.11-10.87c1.22-2.95,4.09-4.86,7.31-4.86c2.68,0,5.39,1.28,7.81,3.71
		L25,13.98l1.06-1.06c2.51-2.51,5.28-3.83,8.02-3.83c3.19,0,6.03,1.88,7.23,4.78c1.46,3.52,0.28,7.56-3.23,11.07L25,38.02
		L11.92,24.94z"/>
	<path d="M34.08,7.59v3c2.58,0,4.87,1.51,5.84,3.85c1.22,2.93,0.16,6.37-2.91,9.44L25,35.9L12.98,23.88
		c-2.97-2.97-3.98-6.34-2.78-9.24c0.99-2.39,3.32-3.94,5.93-3.94c2.28,0,4.61,1.13,6.75,3.27L25,16.1l2.12-2.12
		c2.22-2.22,4.62-3.39,6.96-3.39L34.08,7.59 M34.08,7.59c-2.87,0-6.07,1.25-9.08,4.27c-2.93-2.93-6.05-4.15-8.87-4.15
		c-8.05,0-13.63,9.93-5.27,18.29L25,40.14L39.14,26C47.63,17.51,42.16,7.59,34.08,7.59L34.08,7.59z"/>
</g>
</svg>
